# xmcd
#
# Track frame offsets: 
#        150
#        28812
#        49391
#        69611
#        91868
#        117142
#        139357
#        159733
#        183275
#        203034
#        223791
#        243963
#        270210
#
# Disc length: 3884 seconds
#
# Revision: 0
# Processed by: cddbd v1.5.2PL0 Copyright (c) Steve Scherf et al.
# Submitted via: ExactAudioCopy v0.95b3
#
DISCID=bb0f2a0d
DTITLE=Rob Dickinson - Live and Alone
DYEAR=2006
DGENRE=Indie
TTITLE0=Heal
TTITLE1=The Storm
TTITLE2=Oceans
TTITLE3=My Name Is Love
TTITLE4=Ma Solituda
TTITLE5=Handsome
TTITLE6=Bathe Away
TTITLE7=Eat My Dust You Insensitive Fuck
TTITLE8=Intelligent People
TTITLE9=Crank
TTITLE10=Towering and Flowering
TTITLE11=Black Metallic
TTITLE12=Future Boy
EXTD=
EXTT0=
EXTT1=
EXTT2=
EXTT3=
EXTT4=
EXTT5=
EXTT6=
EXTT7=
EXTT8=
EXTT9=
EXTT10=
EXTT11=
EXTT12=
PLAYORDER=
